<svg width="27" height="28" viewBox="0 0 27 28" fill="none" xmlns="http://www.w3.org/2000/svg">
<g clip-path="url(#clip0_341_34)">
<path fill-rule="evenodd" clip-rule="evenodd" d="M26.5 14.0061C26.5 20.9073 21.5127 26.5989 15.0759 27.4085V18.1311H18.591L19.319 14.0061H15.0701V12.5474C15.0701 10.3656 15.892 9.5286 18.024 9.5286C18.6841 9.5286 19.22 9.5451 19.527 9.57735V5.8401C18.9441 5.67285 17.525 5.5056 16.7031 5.5056C12.3611 5.5056 10.3591 7.63335 10.3591 12.2286V14.0061H7.67603V18.1319H10.3591V27.1092C4.69649 25.6502 0.5 20.3373 0.5 14.0061C0.5 6.55035 6.32039 0.506104 13.5 0.506104C20.6796 0.506104 26.5 6.55035 26.5 14.0061Z" fill="white"/>
</g>
<defs>
<clipPath id="clip0_341_34">
<rect width="26" height="27" fill="white" transform="translate(0.5 0.506104)"/>
</clipPath>
</defs>
</svg>
