<svg width="27" height="28" fill="none" xmlns="http://www.w3.org/2000/svg"><g clip-path="url(#a)"><path fill-rule="evenodd" clip-rule="evenodd" d="M26.5 14.006c0 6.901-4.987 12.593-11.424 13.402v-9.277h3.515l.728-4.125H15.07v-1.459c0-2.181.822-3.018 2.954-3.018.66 0 1.196.016 1.503.048V5.84c-.583-.167-2.002-.334-2.824-.334-4.342 0-6.344 2.127-6.344 6.723v1.777H7.676v4.126h2.683v8.977C4.696 25.65.5 20.337.5 14.006c0-7.456 5.82-13.5 13-13.5s13 6.044 13 13.5z" fill="#fff"/></g><defs><clipPath id="a"><path fill="#fff" transform="translate(.5 .506)" d="M0 0h26v27H0z"/></clipPath></defs></svg>