<svg width="23" height="22" fill="none" xmlns="http://www.w3.org/2000/svg"><path d="M11.725 8.797v4.066h6.04c-.265 1.308-1.06 2.415-2.255 3.16l3.643 2.644c2.123-1.833 3.347-4.525 3.347-7.722 0-.745-.071-1.46-.204-2.148H11.725z" fill="#4285F4"/><path d="m5.434 12.704-.822.589-2.908 2.119c1.847 3.427 5.633 5.794 10.02 5.794 3.03 0 5.572-.936 7.429-2.54l-3.643-2.643c-1 .63-2.276 1.012-3.786 1.012-2.918 0-5.398-1.843-6.285-4.325l-.005-.006z" fill="#34A853"/><path d="M1.704 6A9.832 9.832 0 0 0 .5 10.706c0 1.699.439 3.293 1.204 4.706 0 .01 3.735-2.711 3.735-2.711a5.925 5.925 0 0 1-.357-1.995c0-.697.132-1.365.357-1.995L1.704 6z" fill="#FBBC05"/><path d="M11.725 4.387c1.653 0 3.122.534 4.295 1.565l3.215-3.007c-1.95-1.699-4.48-2.74-7.51-2.74C7.337.206 3.55 2.565 1.705 6l3.734 2.71c.887-2.48 3.367-4.323 6.286-4.323z" fill="#EA4335"/></svg>