<svg width="48" height="48" fill="none" xmlns="http://www.w3.org/2000/svg"><path opacity=".7" fill-rule="evenodd" clip-rule="evenodd" d="M24.021 47.662c13.1 0 23.72-10.62 23.72-23.719 0-13.1-10.62-23.718-23.72-23.718C10.922.225.303 10.844.303 23.943c0 13.1 10.619 23.72 23.718 23.72zm3.303-36.322-6.13.265c.177.88.318 1.655.423 2.325.141.634.247 1.162.317 1.585.106.493.176.916.212 1.268.035.317.07.74.105 1.268.036.458.053 1.04.053 1.744.036.67.053 1.462.053 2.378H15.171c-.493 0-1.11-.018-1.85-.053-.704-.035-1.532-.088-2.483-.158l.37 4.333c.74-.07 1.426-.106 2.06-.106.634-.035 1.18-.088 1.638-.159a14.66 14.66 0 0 0 1.427-.158c.423-.035.916-.07 1.48-.106a24.908 24.908 0 0 1 1.744-.053 26.703 26.703 0 0 1 2.377 0c.036.494.053 1.022.053 1.586 0 .528-.017 1.039-.053 1.532l-.105 1.691c-.035.458-.088.986-.159 1.585-.07.493-.158 1.127-.264 1.903-.07.74-.176 1.585-.317 2.536h5.76a156.331 156.331 0 0 0-.476-2.642c-.106-.74-.194-1.374-.264-1.903a16.557 16.557 0 0 1-.212-1.585 8.365 8.365 0 0 1-.105-1.374 17.338 17.338 0 0 1-.053-1.426c.035-.529.088-1.092.159-1.691 1.021-.035 1.902-.07 2.642-.106a44.16 44.16 0 0 1 1.955-.053h1.585c.423.036.898.053 1.427.053.458.035.986.053 1.585.053.634 0 1.339.035 2.114.106l-.212-4.492c-.422.141-.863.247-1.32.317-.424.035-.829.07-1.216.106-.423.035-.846.053-1.268.053h-1.691c-.6 0-1.357.017-2.272.053-.881.035-1.956.07-3.224.105.035-.704.07-1.356.106-1.955.035-.599.053-1.145.053-1.638v-1.533c0-.457.053-.986.158-1.585.07-.493.176-1.074.317-1.744.176-.704.405-1.479.687-2.324z" fill="#fff"/></svg>