<svg width="129" height="24" fill="none" xmlns="http://www.w3.org/2000/svg"><g clip-path="url(#a)" fill="#F7F7F8"><path d="M111.917 8.5a2.205 2.205 0 0 0-1.026-1.658c-.6-.394-1.336-.591-2.207-.591-.638 0-1.196.103-1.674.31-.473.206-.843.49-1.111.85-.262.36-.393.771-.393 1.23 0 .385.091.715.274.992.187.271.426.499.717.682.291.178.595.325.914.443.319.112.612.203.879.274l1.462.393c.375.099.792.235 1.252.408.464.174.906.41 1.328.71.427.296.778.675 1.055 1.14.276.463.415 1.033.415 1.707 0 .779-.204 1.482-.612 2.11-.403.628-.994 1.127-1.772 1.497-.773.37-1.713.555-2.819.555-1.031 0-1.924-.166-2.678-.499-.75-.332-1.341-.796-1.772-1.392-.427-.595-.668-1.286-.724-2.074h1.8c.046.544.229.994.548 1.35.323.352.731.614 1.223.788a4.954 4.954 0 0 0 1.603.253c.666 0 1.263-.108 1.793-.324.53-.22.949-.525 1.258-.914.31-.393.464-.853.464-1.378 0-.478-.133-.867-.4-1.167a2.949 2.949 0 0 0-1.055-.73 11.107 11.107 0 0 0-1.413-.493l-1.772-.506c-1.125-.323-2.015-.785-2.671-1.385-.656-.6-.984-1.385-.984-2.355 0-.806.217-1.51.653-2.11.441-.604 1.031-1.073 1.772-1.405.745-.338 1.577-.507 2.496-.507.928 0 1.753.167 2.474.5.722.328 1.294.778 1.716 1.35a3.37 3.37 0 0 1 .675 1.947h-1.688zM122.061 14.884V8.501h1.659v10.798h-1.659v-1.828h-.113a3.536 3.536 0 0 1-1.181 1.4c-.534.38-1.209.569-2.025.569-.674 0-1.274-.148-1.799-.443-.525-.3-.938-.75-1.238-1.35-.3-.604-.45-1.366-.45-2.285V8.501h1.66v6.749c0 .787.22 1.415.66 1.884.446.469 1.013.703 1.702.703.412 0 .832-.105 1.258-.316.431-.211.792-.535 1.083-.97.295-.436.443-.992.443-1.667zM125.571 19.3V8.5h1.659v10.8h-1.659zm.844-12.6c-.324 0-.603-.11-.837-.33a1.06 1.06 0 0 1-.344-.794c0-.31.114-.574.344-.794.234-.22.513-.33.837-.33.323 0 .6.11.829.33.235.22.352.485.352.794 0 .31-.117.574-.352.794-.229.22-.506.33-.829.33z"/><path fill-rule="evenodd" clip-rule="evenodd" d="m111.808 8.623-.013-.109a2.082 2.082 0 0 0-.972-1.57c-.576-.378-1.287-.57-2.139-.57-.625 0-1.165.1-1.624.299-.457.198-.808.47-1.061.81a1.918 1.918 0 0 0-.369 1.157c0 .364.086.669.253.922.177.257.403.472.679.646.284.174.581.317.891.432.316.111.605.201.868.27h.001l1.462.394c.38.1.801.237 1.263.412.474.177.926.419 1.356.725.442.305.805.698 1.09 1.176.291.488.432 1.08.432 1.772 0 .801-.21 1.527-.631 2.176-.417.65-1.027 1.164-1.822 1.542-.794.38-1.753.568-2.873.568-1.044 0-1.955-.169-2.728-.51-.768-.34-1.377-.817-1.822-1.432-.441-.616-.69-1.33-.748-2.138l-.009-.133h2.046l.01.113c.045.521.219.944.517 1.278.308.334.698.586 1.172.753a4.826 4.826 0 0 0 1.562.247c.652 0 1.233-.106 1.746-.314.513-.214.914-.507 1.208-.877.292-.37.438-.802.438-1.301 0-.454-.126-.812-.37-1.085a2.819 2.819 0 0 0-1.011-.7c-.43-.184-.896-.347-1.397-.486h-.001l-1.772-.506c-1.137-.328-2.047-.797-2.721-1.413-.684-.626-1.024-1.445-1.024-2.447 0-.83.225-1.559.677-2.181.455-.624 1.063-1.106 1.821-1.447.763-.345 1.613-.517 2.547-.517.943 0 1.786.17 2.526.51.739.336 1.328.799 1.763 1.39.442.592.675 1.265.699 2.016l.005.128h-1.925zm1.122-2.071c-.422-.572-.994-1.022-1.715-1.35-.722-.333-1.547-.499-2.475-.499-.919 0-1.751.169-2.496.506-.74.333-1.331.802-1.772 1.406-.435.6-.653 1.303-.653 2.11 0 .97.328 1.755.984 2.355.656.6 1.547 1.061 2.671 1.384l1.772.507c.506.14.977.304 1.413.492.436.187.787.431 1.055.731.267.3.4.689.4 1.167 0 .525-.154.984-.464 1.378-.309.389-.728.694-1.258.914-.53.216-1.127.323-1.793.323a4.954 4.954 0 0 1-1.603-.253 2.966 2.966 0 0 1-1.223-.787c-.319-.356-.501-.806-.548-1.35h-1.8l.01.124c.072.736.31 1.386.714 1.95.431.595 1.022 1.06 1.772 1.392.754.333 1.647.5 2.678.5 1.106 0 2.046-.186 2.819-.556.778-.37 1.369-.87 1.772-1.498a3.788 3.788 0 0 0 .612-2.109c0-.675-.139-1.244-.415-1.708a3.615 3.615 0 0 0-1.055-1.14 5.754 5.754 0 0 0-1.328-.71c-.46-.173-.877-.308-1.252-.407l-1.462-.394c-.267-.07-.56-.161-.879-.274a5.144 5.144 0 0 1-.914-.443 2.446 2.446 0 0 1-.717-.682c-.183-.276-.274-.607-.274-.991 0-.46.131-.87.394-1.23.267-.361.637-.645 1.11-.851.478-.206 1.036-.31 1.674-.31.871 0 1.607.198 2.207.591.6.394.942.947 1.027 1.66h1.687a3.352 3.352 0 0 0-.675-1.947zm9.007 1.824h1.907v11.046h-1.907v-1.658a3.731 3.731 0 0 1-1.097 1.206h-.001c-.56.398-1.262.592-2.096.592-.694 0-1.315-.152-1.861-.458h-.001c-.548-.314-.977-.784-1.286-1.403-.311-.627-.463-1.409-.463-2.34V8.376h1.906v6.873c0 .763.213 1.358.627 1.799.421.442.954.664 1.612.664.391 0 .791-.1 1.203-.304.41-.2.755-.508 1.035-.928h.001c.277-.41.421-.94.421-1.597V8.376zm-4.361 8.757c-.441-.469-.661-1.097-.661-1.884v-6.75h-1.659v6.862c0 .919.149 1.68.449 2.285.3.6.713 1.05 1.238 1.35.525.295 1.125.443 1.8.443.815 0 1.49-.19 2.024-.57a3.54 3.54 0 0 0 1.17-1.375l.011-.024h.113v1.828h1.659V8.499h-1.659v6.384c0 .675-.148 1.23-.443 1.666-.291.436-.652.76-1.083.97a2.821 2.821 0 0 1-1.258.317c-.689 0-1.256-.235-1.701-.703zm7.871 2.289V8.376h1.907v11.046h-1.907zm.046-12.963h-.001a1.185 1.185 0 0 1-.382-.884c0-.344.129-.641.382-.884h.001c.258-.243.567-.365.922-.365.354 0 .662.122.915.365.257.242.39.539.39.884s-.133.641-.39.884a1.28 1.28 0 0 1-.915.364c-.355 0-.664-.122-.922-.364zm1.751-.09a1.05 1.05 0 0 0 .352-.794c0-.31-.117-.574-.352-.795a1.154 1.154 0 0 0-.829-.33c-.324 0-.603.11-.837.33a1.06 1.06 0 0 0-.344.795c0 .31.114.574.344.794.234.22.513.33.837.33.323 0 .6-.11.829-.33zm-1.673 12.929h1.659V8.499h-1.659v10.799z"/></g><g clip-path="url(#b)"><path fill-rule="evenodd" clip-rule="evenodd" d="M94.37 10.02a7.115 7.115 0 0 1 1.556 4.452c0 1.708-.6 3.276-1.6 4.506l-.086.106-.023-.135a6.344 6.344 0 0 0-.069-.346c-.5-2.2-2.132-4.087-4.817-5.614-1.813-1.029-2.851-2.268-3.124-3.675-.176-.91-.045-1.824.208-2.607.253-.783.629-1.438.948-1.833l1.045-1.278a.458.458 0 0 1 .71 0l5.252 6.423zm1.652-1.277-7-8.56a.334.334 0 0 0-.518 0l-7.001 8.56-.023.029a9.277 9.277 0 0 0-2.06 5.842c0 5.15 4.183 9.326 9.343 9.326s9.342-4.175 9.342-9.326a9.278 9.278 0 0 0-2.06-5.842l-.023-.029zM83.178 9.992l.626-.766.02.141c.014.112.032.225.054.338.405 2.126 1.853 3.898 4.272 5.271 2.104 1.197 3.329 2.574 3.682 4.084.147.63.173 1.25.11 1.792l-.005.033-.03.015a7.145 7.145 0 0 1-3.145.724c-3.956 0-7.163-3.202-7.163-7.152 0-1.696.59-3.254 1.579-4.48z" fill="#F7F7F8"/></g><path d="M.251 17.955V8.501h3.546c.726 0 1.336.135 1.828.406.495.27.87.643 1.122 1.117.255.471.383 1.007.383 1.607 0 .606-.128 1.145-.383 1.615-.256.471-.633.842-1.131 1.113-.499.268-1.113.402-1.842.402h-2.35v-1.408h2.119c.425 0 .772-.074 1.043-.222.271-.148.471-.35.6-.61.133-.258.199-.555.199-.89a1.9 1.9 0 0 0-.199-.887 1.349 1.349 0 0 0-.604-.595c-.271-.145-.62-.217-1.048-.217h-1.57v8.023H.251zM11.535 18.094c-.692 0-1.292-.153-1.8-.457a3.103 3.103 0 0 1-1.182-1.279c-.277-.548-.416-1.188-.416-1.92 0-.733.139-1.375.416-1.926.28-.55.674-.978 1.182-1.283.508-.305 1.108-.457 1.8-.457.693 0 1.293.152 1.8.457.508.305.9.733 1.178 1.284.28.55.42 1.192.42 1.925 0 .732-.14 1.372-.42 1.92-.277.548-.67.974-1.177 1.279-.508.304-1.108.457-1.8.457zm.01-1.339c.375 0 .689-.103.941-.31.252-.209.44-.489.563-.84.127-.35.19-.741.19-1.172a3.46 3.46 0 0 0-.19-1.177 1.864 1.864 0 0 0-.563-.845c-.252-.21-.566-.314-.942-.314-.384 0-.704.105-.96.314-.252.21-.441.49-.568.845a3.54 3.54 0 0 0-.184 1.177c0 .43.061.822.184 1.172.127.351.316.631.568.84.256.207.576.31.96.31zM17.612 17.955l-2.004-7.09h1.703l1.247 4.985h.065l1.274-4.986h1.685l1.274 4.958h.07l1.227-4.958h1.708l-2.008 7.091h-1.74l-1.33-4.792h-.097l-1.33 4.792h-1.744zM29.964 18.094c-.71 0-1.325-.148-1.842-.443a3.001 3.001 0 0 1-1.186-1.265c-.277-.548-.416-1.193-.416-1.935 0-.729.139-1.37.416-1.92.28-.554.67-.985 1.172-1.293.502-.31 1.091-.466 1.768-.466.438 0 .85.07 1.238.212.39.139.735.354 1.034.647.301.292.538.665.71 1.117.173.45.26.985.26 1.606v.513h-5.813V13.74h4.21a1.797 1.797 0 0 0-.207-.854 1.51 1.51 0 0 0-.568-.595 1.596 1.596 0 0 0-.84-.217c-.342 0-.642.083-.9.25-.26.162-.46.378-.605.646a1.86 1.86 0 0 0-.217.872v.983c0 .413.075.767.226 1.062.15.293.361.517.632.674.271.154.588.23.951.23.243 0 .463-.033.66-.1.197-.071.368-.174.513-.31a1.29 1.29 0 0 0 .328-.503l1.56.175a2.432 2.432 0 0 1-.563 1.08 2.746 2.746 0 0 1-1.053.712c-.428.166-.917.249-1.468.249zM34.531 17.955v-7.09h1.62v1.181h.074c.13-.41.351-.725.665-.946a1.83 1.83 0 0 1 1.085-.337c.092 0 .195.004.31.014.116.006.213.017.29.032v1.537a1.753 1.753 0 0 0-.337-.064 3.107 3.107 0 0 0-.438-.033c-.305 0-.58.066-.822.199-.24.13-.43.31-.568.54-.139.23-.208.497-.208.799v4.168h-1.671zM42.532 18.094c-.71 0-1.324-.148-1.841-.443a3.002 3.002 0 0 1-1.187-1.265c-.277-.548-.415-1.193-.415-1.935 0-.729.138-1.37.415-1.92.28-.554.671-.985 1.173-1.293.501-.31 1.09-.466 1.768-.466.437 0 .85.07 1.237.212.39.139.736.354 1.034.647.302.292.539.665.711 1.117.172.45.259.985.259 1.606v.513h-5.813V13.74h4.21a1.797 1.797 0 0 0-.207-.854 1.51 1.51 0 0 0-.568-.595 1.596 1.596 0 0 0-.84-.217c-.342 0-.642.083-.9.25-.259.162-.46.378-.605.646a1.86 1.86 0 0 0-.217.872v.983c0 .413.075.767.226 1.062.15.293.362.517.633.674.27.154.587.23.95.23.244 0 .464-.033.66-.1.198-.071.368-.174.513-.31.145-.135.254-.303.328-.503l1.56.175a2.432 2.432 0 0 1-.563 1.08 2.746 2.746 0 0 1-1.052.712c-.428.166-.918.249-1.468.249zM49.73 18.08a2.683 2.683 0 0 1-1.495-.43c-.44-.286-.788-.701-1.043-1.246-.256-.545-.383-1.206-.383-1.985 0-.788.129-1.453.387-1.994.262-.545.614-.956 1.058-1.233.443-.28.937-.42 1.481-.42.416 0 .758.07 1.025.212.268.139.48.307.637.504.157.194.279.377.365.549h.07V8.501h1.675v9.454h-1.643v-1.117h-.102c-.086.172-.21.356-.374.55-.163.19-.378.353-.646.489-.268.135-.605.203-1.011.203zm.467-1.371c.354 0 .656-.096.905-.286a1.79 1.79 0 0 0 .568-.808c.129-.345.194-.747.194-1.205 0-.459-.065-.857-.194-1.196a1.703 1.703 0 0 0-.564-.79c-.246-.187-.549-.28-.909-.28-.372 0-.683.096-.933.29a1.76 1.76 0 0 0-.563.803c-.126.342-.189.733-.189 1.173 0 .443.063.838.19 1.186.129.345.318.617.567.817.253.197.562.296.928.296zM58.586 17.955V8.501h1.672v3.536h.069a3.08 3.08 0 0 1 .364-.55c.157-.196.37-.364.637-.503.268-.141.61-.212 1.025-.212.548 0 1.042.14 1.482.42.443.277.794.688 1.053 1.233.261.541.392 1.206.392 1.994 0 .779-.127 1.44-.383 1.985-.255.545-.603.96-1.043 1.247-.44.286-.939.429-1.496.429-.406 0-.743-.068-1.011-.203a2.058 2.058 0 0 1-.646-.49 3.175 3.175 0 0 1-.374-.549h-.097v1.117h-1.644zm1.64-3.545c0 .458.064.86.193 1.205.132.344.322.614.568.808.25.19.55.286.905.286.369 0 .678-.099.928-.296.249-.2.437-.472.563-.817a3.39 3.39 0 0 0 .194-1.186c0-.44-.063-.831-.19-1.173a1.76 1.76 0 0 0-.563-.803c-.25-.194-.56-.29-.932-.29-.357 0-.66.093-.91.28-.249.189-.438.452-.568.79-.126.339-.189.737-.189 1.196zM67.498 20.614c-.227 0-.438-.018-.632-.055a2.342 2.342 0 0 1-.457-.12l.388-1.302c.243.07.46.105.65.102a.798.798 0 0 0 .504-.18c.148-.114.272-.305.374-.573l.143-.383-2.572-7.239h1.773l1.635 5.355h.073l1.64-5.355h1.776l-2.839 7.95a3.186 3.186 0 0 1-.526.965 2.14 2.14 0 0 1-.803.618c-.314.145-.69.217-1.127.217z" fill="#fff"/><defs><clipPath id="a"><path fill="#fff" transform="translate(102.86 4.04)" d="M0 0h25.207v15.921H0z"/></clipPath><clipPath id="b"><path fill="#fff" transform="translate(79.42 .06)" d="M0 0h19.237v23.881H0z"/></clipPath></defs></svg>