<svg width="181" height="66" fill="none" xmlns="http://www.w3.org/2000/svg"><path d="M21.992 10.104c-.297.726-.56 1.385-.791 1.979-.198.594-.38 1.121-.545 1.583-.165.528-.313.99-.445 1.385-.132.462-.28.99-.445 1.583-.165.528-.38 1.188-.643 1.98-.231.758-.512 1.665-.841 2.72-.264-1.583-.742-2.836-1.435-3.76-.693-.956-1.402-1.698-2.128-2.226a8.832 8.832 0 0 0-2.77-1.286c-1.781-.297-3.068-.264-3.86.099-.79.363-1.318.824-1.582 1.385a11.1 11.1 0 0 0-.446.89c-.131.33-.247.677-.346 1.04a4.022 4.022 0 0 0-.05 1.088c.034.363.182.66.446.89.165.165.594.396 1.286.693l2.474.94c.99.33 2.028.693 3.117 1.089 1.121.395 2.177.791 3.166 1.187.99.396 1.847.791 2.573 1.187s1.204.759 1.435 1.089c.198.33.412.775.643 1.336.264.527.445 1.121.544 1.78.132.627.165 1.287.099 1.98-.033.66-.214 1.319-.544 1.979-.33.66-.858 1.27-1.583 1.83-.693.56-1.633 1.023-2.82 1.385-1.386.43-2.722.545-4.008.347a18.755 18.755 0 0 1-3.562-.89 42.726 42.726 0 0 1-2.77-1.139c-.792-.395-1.353-.56-1.683-.495-.363.066-.775.248-1.237.545-.461.297-.907.61-1.335.94-.396.297-.742.577-1.04.84-.296.232-.445.314-.445.248s.05-.264.149-.594c.132-.33.264-.725.396-1.187.165-.495.313-1.022.445-1.583.165-.594.28-1.154.346-1.682.066-.429.149-.957.248-1.583.066-.561.148-1.237.247-2.029.132-.824.28-1.814.445-2.968.165.857.396 1.6.693 2.226.33.627.643 1.171.94 1.633.363.527.709.973 1.039 1.335.495.462 1.072.891 1.731 1.287a20.33 20.33 0 0 0 2.078 1.039 7.9 7.9 0 0 0 1.98.495c.626.066 1.154 0 1.583-.198.428-.198.791-.561 1.088-1.089.33-.527.56-1.105.693-1.731.131-.627.181-1.22.148-1.781-.033-.594-.181-1.072-.445-1.435-.198-.231-.66-.528-1.386-.89a38.627 38.627 0 0 0-2.523-1.188c-.956-.429-1.979-.874-3.067-1.336a89.024 89.024 0 0 1-3.018-1.385 25.477 25.477 0 0 1-2.325-1.386c-.594-.461-.924-.873-.99-1.236a24.344 24.344 0 0 1-.148-1.732c-.033-.66 0-1.303.099-1.93.132-.66.362-1.286.692-1.88.363-.593.89-1.088 1.583-1.484.462-.263 1.072-.461 1.831-.593.759-.132 1.6-.198 2.523-.198.924-.033 1.88 0 2.87.099.99.066 1.93.165 2.82.296.923.1 1.748.231 2.473.396.76.165 1.336.314 1.732.446.462.165.957.181 1.484.05.462-.1.957-.314 1.485-.644.527-.33 1.072-.924 1.632-1.781zM23.526.852c.759.132 1.451.231 2.078.297a67.41 67.41 0 0 1 1.583.099c.495.033.923.05 1.286.05a53.371 53.371 0 0 0 1.732-.149c.56-.066 1.237-.148 2.028-.247a83.15 83.15 0 0 0 2.82-.396 8.058 8.058 0 0 0-1.236.791 3.45 3.45 0 0 0-.792.743 5.117 5.117 0 0 0-.544.84c-.165.43-.347 1.32-.545 2.672-.197 1.155-.445 2.87-.742 5.146-.264 2.275-.61 5.36-1.039 9.251 1.188-1.187 2.31-2.078 3.365-2.671 1.088-.627 2.045-1.072 2.87-1.336.956-.297 1.846-.446 2.67-.446 1.023.1 2.062.43 3.118.99a16.562 16.562 0 0 1 3.018 1.88c.956.726 1.78 1.5 2.473 2.325.726.825 1.237 1.55 1.534 2.177.198.429.297.99.297 1.682 0 .66-.066 1.386-.198 2.177-.132.792-.313 1.6-.544 2.424-.231.825-.462 1.6-.693 2.326-.198.725-.38 1.369-.544 1.93-.165.527-.264.906-.297 1.137-.066.495-.033.973.099 1.435.099.396.297.824.594 1.286.297.429.742.792 1.335 1.089a18.863 18.863 0 0 0-1.484-.149 23.564 23.564 0 0 0-1.434-.148 25.36 25.36 0 0 0-1.584-.05h-1.78a43 43 0 0 0-1.93.05c-.726 0-1.517.016-2.375.05a4.08 4.08 0 0 0 1.187-.644c.33-.297.61-.577.841-.841.264-.297.495-.61.693-.94.132-.264.297-.759.495-1.484.198-.759.38-1.616.544-2.573.165-.99.28-2.028.346-3.117.1-1.088.116-2.127.05-3.117-.033-1.022-.182-1.93-.445-2.72-.231-.792-.594-1.37-1.089-1.732-1.484-1.122-2.836-1.666-4.057-1.633-1.187 0-2.325.478-3.413 1.435-.396.363-.776.725-1.138 1.088-.33.33-.693.726-1.089 1.188-.396.428-.758.874-1.088 1.335 0 .495.016 1.04.05 1.633.032.594.065 1.171.098 1.732.033.626.083 1.253.149 1.88.066.956.165 1.896.296 2.82.1.791.231 1.665.396 2.622.165.923.38 1.764.643 2.523a5.97 5.97 0 0 0-1.335-.05h-1.336c-.495.034-.973.05-1.435.05a20.67 20.67 0 0 0-1.336.149c-.396.065-.824.131-1.286.197a8.668 8.668 0 0 0-1.336.198c.396-.758.726-1.5.99-2.226.263-.759.478-1.418.643-1.98.198-.659.363-1.302.495-1.928.098-.495.164-1.435.197-2.82.066-1.419.116-3.035.149-4.85.033-1.846.05-3.792.05-5.837s-.017-3.99-.05-5.838a92.243 92.243 0 0 0-.198-4.848c-.066-1.386-.148-2.342-.247-2.87a9.994 9.994 0 0 0-.545-1.583 6.186 6.186 0 0 0-.791-1.336A4.084 4.084 0 0 0 23.526.852zm28.448 15.387 9.103.099c-.528 2.011-.924 3.727-1.188 5.145-.23 1.418-.379 2.606-.445 3.562-.132 1.088-.165 2.012-.099 2.77.1.693.264 1.435.495 2.227.198.66.495 1.418.89 2.276a13.56 13.56 0 0 0 1.584 2.572 7.36 7.36 0 0 0-1.287-.296c-.461-.066-.89-.116-1.286-.149a9.705 9.705 0 0 0-1.385 0 33.74 33.74 0 0 0-1.534.149c-.462.066-1.022.148-1.682.247-.66.099-1.352.23-2.078.396.495-1.485.874-2.77 1.138-3.86.297-1.088.511-1.995.643-2.72.132-.858.214-1.55.247-2.078v-4.7c0-.792-.016-1.485-.049-2.078-.033-.627-.099-1.023-.198-1.188l-.495-.494a23.783 23.783 0 0 0-.89-.693 19.27 19.27 0 0 0-1.484-1.187zm3.512-7.62c.693-.362 1.386-.461 2.078-.296.726.165 1.286.478 1.682.94.396.462.528 1.006.396 1.632-.099.627-.627 1.237-1.583 1.831-.957.56-1.798.759-2.523.594-.726-.165-1.237-.512-1.534-1.04-.297-.527-.346-1.137-.148-1.83.197-.725.742-1.336 1.632-1.83zm10.143 24.292a33.04 33.04 0 0 0 .494-2.869c.132-.858.231-1.567.297-2.127.066-.66.099-1.22.099-1.683-.033-.56-.066-1.22-.099-1.979 0-.791-.033-1.566-.099-2.325a30.691 30.691 0 0 0-.148-2.078c-.066-.626-.149-1.072-.248-1.335a5.12 5.12 0 0 0-.544-.842c-.462-.56-1.138-1.104-2.028-1.632a70.285 70.285 0 0 1 1.93-.396c.56-.132 1.022-.247 1.384-.346l1.04-.347c.263-.099.577-.198.94-.296.296-.067.659-.149 1.088-.248.429-.099.923-.214 1.484-.346l-.148 4.502c1.055-1.253 2.127-2.193 3.216-2.82 1.088-.627 2.11-1.072 3.067-1.336a11.05 11.05 0 0 1 3.216-.495c1.319.066 2.54.28 3.66.643 1.155.363 2.145.792 2.97 1.287.857.462 1.55.956 2.077 1.484.528.528.841.99.94 1.385.396 1.287.495 2.474.297 3.563a25.361 25.361 0 0 1-.792 3.116c-.296.99-.56 1.98-.791 2.969-.198.99-.116 2.061.247 3.216l.396.89c.132.264.297.528.495.792s.428.478.692.643c-.362-.033-.725-.05-1.088-.05a50.032 50.032 0 0 1-.99-.099 50.096 50.096 0 0 1-.989-.098c-.33-.033-.775-.05-1.336-.05-.956 0-2.44.05-4.453.148.297-.692.528-1.27.693-1.731.198-.495.363-.89.495-1.188a41.2 41.2 0 0 0 .297-.84c.395-.957.626-2.045.692-3.266.1-1.22.017-2.457-.247-3.71-.099-.43-.264-.94-.495-1.534a8.077 8.077 0 0 0-.94-1.732 5.538 5.538 0 0 0-1.336-1.434 3.223 3.223 0 0 0-1.731-.693c-.66-.066-1.402.099-2.227.495-.791.396-1.649 1.121-2.572 2.177-.693.89-1.237 1.979-1.633 3.265-.363 1.088-.61 2.457-.742 4.106-.132 1.616.066 3.513.594 5.69a9.145 9.145 0 0 0-1.287-.1 24.86 24.86 0 0 1-.99-.098 32.31 32.31 0 0 1-.89-.1c-.296 0-.626-.016-.99-.049H67.36c-.495-.033-1.072-.066-1.731-.099zm60.358-18.008a52.61 52.61 0 0 0 1.93-.198c.56-.066 1.022-.132 1.385-.198a17.12 17.12 0 0 0 1.088-.198 6.55 6.55 0 0 0 .99-.198c.33-.066.692-.148 1.088-.247.429-.132.891-.28 1.385-.445l-.296 6.283c.725-1.155 1.566-2.029 2.523-2.622.956-.627 1.863-1.089 2.721-1.386a11.317 11.317 0 0 1 3.067-.643c1.056.033 2.029.198 2.919.495.759.264 1.517.676 2.276 1.237.792.56 1.402 1.385 1.831 2.474 1.121-1.155 2.226-2.045 3.314-2.672 1.122-.66 2.111-1.154 2.969-1.484 1.022-.363 1.979-.578 2.869-.643 1.188-.033 2.276.165 3.266.593 1.022.429 1.913.973 2.671 1.633.759.627 1.369 1.303 1.831 2.028.462.693.725 1.303.791 1.83.099.726.05 1.666-.148 2.82a80.28 80.28 0 0 1-.693 3.464 737.213 737.213 0 0 1-.742 3.216c-.198.956-.28 1.633-.247 2.028.099.33.33.726.693 1.188.329.396.808.89 1.434 1.484.66.56 1.6 1.22 2.82 1.979a327.675 327.675 0 0 1-2.82-.099 27.493 27.493 0 0 1-2.028-.148 53.321 53.321 0 0 0-1.732-.149c-.396 0-.874-.033-1.435-.099a124.29 124.29 0 0 1-1.83-.148c-.726-.066-1.567-.132-2.523-.198a1.77 1.77 0 0 0 .89-.544c.231-.297.429-.578.594-.841.165-.33.297-.693.396-1.089.066-.33.132-.857.198-1.583s.115-1.55.148-2.474c.066-.923.099-1.896.099-2.919a43.015 43.015 0 0 0 0-2.919 27.084 27.084 0 0 0-.198-2.523c-.099-.758-.231-1.336-.396-1.731-.132-.297-.362-.528-.692-.693a2.56 2.56 0 0 0-1.138-.346 3.384 3.384 0 0 0-1.287.05 3.102 3.102 0 0 0-1.137.395c-.297.23-.693.544-1.188.94a71.17 71.17 0 0 0-1.682 1.484c-.693.627-1.567 1.418-2.622 2.375-.099 2.078-.182 3.76-.247 5.046-.033 1.254-.066 2.21-.099 2.87-.033.791-.05 1.336-.05 1.632-.033.264-.016.512.05.742.066.495.263.957.593 1.386a7.514 7.514 0 0 0-1.286-.198 86.408 86.408 0 0 1-1.187-.099 15.545 15.545 0 0 0-2.474 0c-.363.033-.808.082-1.336.148a41.16 41.16 0 0 0-1.732.149c.264-.165.479-.363.644-.594.165-.23.296-.445.395-.643.132-.23.231-.445.297-.643.033-.198.099-.676.198-1.435.099-.792.165-1.715.198-2.77.033-1.056.033-2.16 0-3.315-.033-1.188-.148-2.26-.346-3.216-.198-.99-.512-1.798-.94-2.424-.396-.627-.924-.907-1.583-.841-.792.066-1.6.263-2.425.593-.692.264-1.434.66-2.226 1.188-.792.527-1.534 1.236-2.226 2.127a203.603 203.603 0 0 0-.248 5.887c0 1.452.017 2.557.05 3.315.033.89.066 1.501.099 1.83.033.232.115.463.247.693l.346.693c.165.264.347.511.545.742l-7.867-.396c.264-.132.495-.297.693-.494.198-.231.363-.462.495-.693l.395-.792c.099-.23.182-.775.248-1.632a53.32 53.32 0 0 0 .247-3.018c.066-1.188.116-2.424.149-3.71.065-1.32.098-2.54.098-3.662.033-1.154.05-2.127.05-2.919 0-.824-.017-1.32-.05-1.484-.098-.33-.28-.676-.544-1.039a6.178 6.178 0 0 0-.94-.841c-.396-.33-.923-.577-1.583-.742zm43.983 1.336 9.103.099c-.528 2.011-.924 3.727-1.187 5.145-.231 1.418-.38 2.606-.446 3.562-.132 1.088-.165 2.012-.099 2.77.099.693.264 1.435.495 2.227.198.66.495 1.418.891 2.276.395.857.923 1.715 1.583 2.572a7.365 7.365 0 0 0-1.287-.296c-.461-.066-.89-.116-1.286-.149a9.7 9.7 0 0 0-1.385 0 33.94 33.94 0 0 0-1.534.149c-.462.066-1.022.148-1.682.247-.66.099-1.352.23-2.078.396.495-1.485.874-2.77 1.138-3.86.297-1.088.511-1.995.643-2.72.132-.858.215-1.55.248-2.078v-4.7c0-.792-.017-1.485-.05-2.078-.033-.627-.099-1.023-.198-1.188l-.495-.494a22.793 22.793 0 0 0-.89-.693c-.363-.33-.858-.726-1.484-1.187zm3.512-7.62c.693-.362 1.386-.461 2.078-.296.726.165 1.287.478 1.682.94.396.462.528 1.006.396 1.632-.099.627-.626 1.237-1.583 1.831-.957.56-1.798.759-2.523.594-.726-.165-1.237-.512-1.534-1.04-.297-.527-.346-1.137-.148-1.83.198-.725.742-1.336 1.632-1.83z" fill="#fff"/><path fill-rule="evenodd" clip-rule="evenodd" d="M113.018 13.452c-1.573-.51-3.48-.831-5.478-.5-1.192.199-2.836.503-4.264 1.821m9.742-1.321c-1.816-.074-3.936.206-5.325 1.618-.804.818-1.322 2.004-1.469 3.204-.147 1.201.07 2.499.845 3.504.639.828 1.567 1.331 2.506 1.589.33.09.668.152 1.003.188-.235.148-.488.298-.756.444-1.496.817-3.342 1.445-5.042 1.027-2.179-.535-3.253-2.52-3.338-2.687l-.001-.001c-.655-1.272-.681-2.711-.289-4.079.392-1.371 1.195-2.627 2.124-3.486m9.437 7.975.418.46 2.389-2.168-3.021 1.124c.001 0 .001 0 0 0m-4.446-1.146c-.524-.68-.713-1.622-.594-2.593.118-.972.538-1.89 1.121-2.482 1.157-1.177 3.165-1.38 5.073-1.203a17.121 17.121 0 0 1 3.315.658l.049.015.011.004h.002l3.721 1.238-3.156-2.328-.369.5.369-.5-.002-.001-.004-.003-.012-.01-.045-.031c-.039-.027-.094-.066-.166-.114-.143-.096-.351-.23-.616-.386-.53-.314-1.29-.721-2.22-1.1-1.853-.756-4.422-1.416-7.193-.956-1.211.201-3.185.546-4.905 2.134-1.095 1.011-2.02 2.465-2.476 4.057-.457 1.596-.453 3.374.379 4.99.114.221 1.408 2.653 4.148 3.327 2.16.531 4.355-.281 5.935-1.143a16.074 16.074 0 0 0 2.505-1.704 9.74 9.74 0 0 0 .151-.128l.04-.036.012-.01.003-.003.001-.001h.001l-.418-.461" fill="#fff"/><path fill-rule="evenodd" clip-rule="evenodd" d="m94.1 26.645-.015.24c-.134 2.593.481 5.392 3.256 6.902 4.972 2.704 9.449.027 10.558-.895 2.172-1.807 3.963-2.85 5.564-3.422 1.609-.574 2.991-.658 4.317-.595 2.113.1 3.554 1.125 4.453 2.11.349.382.618.76.817 1.078.436-1.216.752-2.511.749-3.785-.003-1.706-.577-3.385-2.274-4.813-1.922-1.617-4.484-1.43-5.028-1.377-.982.099-1.991.5-3.166 1.212-1.178.715-2.485 1.72-4.064 2.988-.281.225-.556.454-.833.685-1.658 1.38-3.348 2.788-6.226 3.379-.78.182-2.091.314-3.459.067-1.379-.25-2.872-.898-3.892-2.332a6.125 6.125 0 0 1-.757-1.442zm28.258 6.76v-.002a6.252 6.252 0 0 0-1.043-1.58c-.741-.811-1.893-1.626-3.594-1.706-1.216-.058-2.426.02-3.84.524-1.424.509-3.089 1.462-5.187 3.207-1.269 1.055-6.312 4.096-11.947 1.03-3.398-1.848-4.048-5.27-3.903-8.058.072-1.403.345-2.689.598-3.62a17.827 17.827 0 0 1 .451-1.424c.013-.037.024-.064.032-.084l.009-.023.002-.007.001-.002.578.23-.577-.23.002-.008.003-.006c1.949-4.548 6.711-10.354 15.831-10.06l-.04 1.243c-8.413-.27-12.797 5.02-14.63 9.264l-.02.085a8.46 8.46 0 0 0-.191 1.698c-.01 1.076.191 2.387.977 3.49.774 1.088 1.927 1.617 3.1 1.829 1.18.213 2.321.095 2.962-.055l.009-.003.009-.001c2.558-.524 4.006-1.725 5.66-3.097.284-.236.575-.477.878-.72 1.578-1.268 2.942-2.32 4.198-3.082 1.26-.764 2.451-1.262 3.687-1.386h.001c.574-.057 3.607-.31 5.951 1.663 2.01 1.69 2.714 3.733 2.718 5.762.004 1.996-.668 3.965-1.365 5.575l-.595 1.373-.724-1.818-.001-.002z" fill="#fff"/><path d="M91.584 46.524c-.064-.428-.117-.782-.16-1.06a7.387 7.387 0 0 0-.129-.706l-.096-.482a4.709 4.709 0 0 0-.16-.353 1.938 1.938 0 0 0-.225-.386 8.95 8.95 0 0 0-.322-.514 3.8 3.8 0 0 0 .835.161c.3.021.579.043.835.064.279.022.568.022.867 0 .3 0 .643-.01 1.028-.032.343-.021.75-.032 1.22-.032a63.35 63.35 0 0 0 1.67-.096 2.227 2.227 0 0 0-.93.45 3.45 3.45 0 0 0-.611.642 4.032 4.032 0 0 0-.482.834c-.107.279-.171.814-.192 1.606a57.42 57.42 0 0 0 0 2.762c.021 1.05.042 2.184.064 3.404.043 1.22.064 2.387.064 3.5a70.415 70.415 0 0 1 0 3.052c-.021.899-.075 1.563-.16 1.99-.3 1.35-.857 2.442-1.67 3.277-.814.856-1.885 1.316-3.212 1.38-1.606.065-2.88-.085-3.822-.45-.92-.363-1.637-.813-2.151-1.348-.514-.514-.9-1.038-1.156-1.573-.257-.536-.525-.942-.803-1.22a21.147 21.147 0 0 0-.771-.675 21.982 21.982 0 0 0-.739-.514 1.734 1.734 0 0 0-.706-.321c.62.021 1.177.032 1.67.032h1.252c.386 0 .728-.01 1.028-.032h3.95c-.428.128-.75.267-.963.417-.215.171-.364.343-.45.514a1.413 1.413 0 0 0-.129.578c.086.514.364.889.835 1.124.472.236 1.114.375 1.927.418.792.042 1.338.021 1.638-.065.3-.064.535-.192.707-.385.342-.514.631-1.178.867-1.991.171-.685.289-1.574.353-2.666.086-1.113-.01-2.473-.289-4.078-.685.942-1.477 1.648-2.377 2.12-.899.47-1.755.813-2.569 1.027-.963.236-1.937.353-2.922.353-2.59-.107-4.528-.706-5.813-1.798-1.285-1.092-1.873-2.559-1.766-4.4.064-.92.342-1.841.835-2.762a9.545 9.545 0 0 1 1.99-2.473 9.916 9.916 0 0 1 2.86-1.734 7.731 7.731 0 0 1 3.34-.546c.877.086 1.701.246 2.472.482a9.436 9.436 0 0 1 1.959.9c.664.385 1.167.92 1.51 1.605zm-10.212 3.211c-.129.835-.075 1.617.16 2.345.257.728.61 1.36 1.06 1.895.45.513.953.92 1.51 1.22.556.278 1.08.407 1.573.385 1.028-.021 1.916-.481 2.666-1.38.75-.921 1.199-2.292 1.349-4.111.064-.9-.054-1.67-.354-2.313-.278-.663-.631-1.199-1.06-1.605-.428-.407-.877-.696-1.348-.867-.471-.172-.846-.247-1.124-.225-.386.043-.814.16-1.285.353-.45.171-.889.439-1.317.803-.428.343-.813.803-1.156 1.38-.32.579-.546 1.285-.674 2.12zm18.273-2.601c.107-.128.171-.364.193-.706a7.76 7.76 0 0 1 .257-1.22c.15-.45.396-.921.738-1.414.343-.492.9-.953 1.67-1.38.75-.429 1.478-.686 2.184-.772a5.78 5.78 0 0 1 2.023.097c.643.15 1.242.385 1.799.706a10.72 10.72 0 0 1 1.573 1.06c.322.257.579.632.771 1.124a7.89 7.89 0 0 1 .45 1.606c.107.6.182 1.231.225 1.895.064.642.107 1.274.128 1.895.022.599.032 1.156.032 1.67.022.492.064.899.129 1.22.085.47.235.878.449 1.22.214.321.45.6.707.835.257.214.514.386.771.514s.481.225.674.289c.128.064.246.107.353.128.214.086.364.086.45 0-.129.3-.246.557-.353.771-.107.214-.193.396-.257.546-.086.171-.161.31-.225.418a1.95 1.95 0 0 1-.225.353c-.064.107-.15.225-.257.353a7.086 7.086 0 0 0-.321.418 5.546 5.546 0 0 1-.803-.386 38.7 38.7 0 0 1-.642-.417c-.236-.15-.45-.3-.642-.45a4.053 4.053 0 0 1-.546-.514l-.482-.546a3.235 3.235 0 0 1-.386-.642c-.128.279-.438.675-.931 1.188-.471.514-1.092.985-1.863 1.413-.77.407-1.669.696-2.697.867-1.006.172-2.12.054-3.34-.353a5.822 5.822 0 0 1-1.51-.738 5.5 5.5 0 0 1-1.22-1.22 4.959 4.959 0 0 1-.706-1.607c-.129-.62-.118-1.305.032-2.055.15-.75.417-1.38.803-1.895a4.803 4.803 0 0 1 1.381-1.252 6.745 6.745 0 0 1 1.798-.739 12.895 12.895 0 0 1 2.055-.353 8.739 8.739 0 0 1 1.67.096 6.29 6.29 0 0 1 1.478.482 3.32 3.32 0 0 1 1.316.996 36.627 36.627 0 0 0-.128-2.698 30.937 30.937 0 0 0-.129-1.574c-.085-.428-.16-.728-.224-.899-.107-.15-.225-.321-.354-.514a1.917 1.917 0 0 0-.417-.514 1.967 1.967 0 0 0-.642-.417 1.997 1.997 0 0 0-.9-.128c-.364.02-.653.117-.867.289a2.013 2.013 0 0 0-.514.61c-.107.214-.171.45-.192.706-.022.257-.011.482.032.675.043.128.107.267.192.417.086.129.204.268.354.418.15.15.353.278.61.385-.493.064-.931.118-1.317.16a10.59 10.59 0 0 0-.995.097c-.322.043-.6.075-.835.096a8.026 8.026 0 0 0-.835.129l-1.028.16c-.407.065-.878.15-1.413.257.128-.15.246-.289.353-.417.107-.15.204-.279.29-.386.085-.128.17-.246.256-.353zm4.817 3.822c-.385.021-.77.117-1.156.289a2.95 2.95 0 0 0-1.027.674c-.3.279-.557.61-.771.996-.193.364-.289.77-.289 1.22 0 .45.107.846.321 1.188.235.322.535.59.899.803.386.214.792.343 1.221.386.449.042.888 0 1.316-.129a3.66 3.66 0 0 0 1.156-.706c.364-.343.675-.707.932-1.092a4.49 4.49 0 0 0 .546-1.188c.107-.407.117-.74.032-.996-.172-.557-.557-.942-1.156-1.156-.6-.236-1.274-.332-2.024-.29z" fill="#fff"/><path d="M114.739 44.918c.493-.043.91-.085 1.253-.128.364-.043.663-.086.899-.129a11.1 11.1 0 0 0 .706-.128c.193-.022.407-.064.643-.129.214-.043.449-.096.706-.16.279-.086.578-.182.899-.29l-.192 4.08c.471-.75 1.017-1.317 1.638-1.703.62-.407 1.209-.706 1.766-.899a7.352 7.352 0 0 1 1.991-.418 6.622 6.622 0 0 1 1.895.322c.492.171.985.439 1.477.803.514.363.91.899 1.188 1.605.728-.749 1.445-1.327 2.152-1.734.728-.428 1.37-.75 1.927-.963a7.19 7.19 0 0 1 1.863-.418c.77-.021 1.477.107 2.119.386a6.366 6.366 0 0 1 1.734 1.06 5.66 5.66 0 0 1 1.189 1.316c.299.45.471.846.513 1.188.065.471.033 1.081-.096 1.83a50.424 50.424 0 0 1-.45 2.249c-.171.75-.331 1.445-.481 2.087-.129.621-.182 1.06-.161 1.317.064.214.214.471.45.77.214.258.524.579.931.964.428.364 1.039.792 1.831 1.285a215.84 215.84 0 0 1-1.831-.064 17.884 17.884 0 0 1-1.317-.097 34.417 34.417 0 0 0-1.124-.096c-.257 0-.567-.021-.931-.064-.3-.022-.696-.054-1.188-.097a75.706 75.706 0 0 0-1.638-.128c.235-.064.428-.182.578-.353.15-.193.278-.375.385-.546.107-.214.193-.45.257-.707.043-.214.086-.556.129-1.028.043-.47.075-1.006.096-1.605.043-.6.064-1.231.064-1.895a27.19 27.19 0 0 0 0-1.895 17.54 17.54 0 0 0-.128-1.638c-.064-.492-.15-.867-.257-1.124a.92.92 0 0 0-.45-.45 1.66 1.66 0 0 0-.738-.224 2.196 2.196 0 0 0-.835.032 2.014 2.014 0 0 0-.739.257c-.193.15-.449.353-.771.61a47.5 47.5 0 0 0-1.092.964l-1.702 1.541a864.17 864.17 0 0 1-.16 3.276 92.355 92.355 0 0 1-.064 1.862c-.022.514-.033.867-.033 1.06-.021.172-.01.332.033.482.042.321.171.62.385.9a4.865 4.865 0 0 0-.835-.13 57.154 57.154 0 0 1-.771-.063 10.137 10.137 0 0 0-1.606 0c-.235.02-.524.053-.867.096-.342.021-.717.053-1.124.096a1.44 1.44 0 0 0 .418-.385c.107-.15.193-.29.257-.418.085-.15.15-.289.192-.417.022-.129.065-.44.129-.931.064-.514.107-1.114.128-1.799.022-.685.022-1.402 0-2.152a12 12 0 0 0-.224-2.087c-.129-.642-.332-1.167-.611-1.574-.257-.407-.599-.588-1.027-.546a5.45 5.45 0 0 0-1.574.386 7.39 7.39 0 0 0-1.445.77c-.514.343-.996.803-1.445 1.381a133.14 133.14 0 0 0-.161 3.822c0 .942.011 1.66.032 2.152.022.578.043.974.064 1.188.022.15.075.3.161.45l.225.45c.107.17.225.331.353.48l-5.106-.256c.171-.086.321-.193.449-.321.129-.15.236-.3.322-.45l.257-.514c.064-.15.117-.503.16-1.06.064-.556.118-1.209.161-1.958.043-.771.075-1.574.096-2.409.043-.856.064-1.649.064-2.377.022-.749.032-1.38.032-1.894 0-.536-.01-.857-.032-.964a2.281 2.281 0 0 0-.353-.674 4.012 4.012 0 0 0-.61-.546c-.257-.214-.6-.375-1.028-.482zm36.9 10.052c.6 0 1.156-.064 1.67-.192a4.352 4.352 0 0 0 1.22-.514c.407-.257.675-.632.803-1.124.429.085.793.16 1.092.224.3.043.557.086.771.129.236.064.439.107.61.128.171.043.375.086.61.129.214.043.471.096.771.16.321.043.696.107 1.124.193a2.29 2.29 0 0 0-.995.096 11.68 11.68 0 0 0-.932.354c-.342.15-.663.332-.963.546a4.663 4.663 0 0 0-.675.578c-.235.257-.578.503-1.027.738-.45.236-1.049.44-1.799.61-.728.15-1.67.204-2.826.161-1.391-.043-2.558-.289-3.5-.739-.942-.47-1.702-1.038-2.281-1.702a6.56 6.56 0 0 1-1.252-2.216c-.257-.792-.396-1.53-.417-2.216-.022-.685.182-1.402.61-2.151.428-.75 1.027-1.435 1.798-2.056.792-.62 1.745-1.124 2.858-1.509 1.114-.407 2.334-.61 3.661-.61.771 0 1.478.096 2.12.289a7.488 7.488 0 0 1 1.798.706 6.74 6.74 0 0 1 1.446 1.028c.406.364.749.739 1.027 1.124.279.407.514.835.707 1.285.171.385.31.824.417 1.316.107.493.139.996.097 1.51-1.627.043-2.944.075-3.95.096-.985.022-1.756.032-2.313.032h-2.537c-.385 0-.888.011-1.509.032-.621.022-1.381.054-2.28.097.107.856.374 1.52.803 1.99.449.45.92.793 1.413 1.029a5.105 5.105 0 0 0 1.83.45zm-2.89-5.78c.685.042 1.252.074 1.702.096.471.021.856.043 1.156.064.321.021.578.032.771.032h.803c.535 0 1.53-.032 2.986-.096-.064-.942-.267-1.66-.61-2.152-.321-.492-.664-.856-1.028-1.092a3.228 3.228 0 0 0-1.413-.45c-1.391.022-2.43.311-3.115.868-.663.556-1.081 1.466-1.252 2.73zm26.88-7.387c-.193.471-.364.9-.514 1.285-.128.385-.246.728-.353 1.027-.107.343-.204.643-.289.9-.086.3-.182.642-.289 1.027a67.57 67.57 0 0 1-.418 1.285c-.15.492-.332 1.081-.546 1.766-.171-1.028-.481-1.841-.931-2.44-.45-.621-.91-1.103-1.381-1.446a5.74 5.74 0 0 0-1.798-.835c-1.157-.192-1.992-.171-2.505.065-.514.235-.857.535-1.028.899a7.06 7.06 0 0 0-.289.578 6.1 6.1 0 0 0-.225.674 2.62 2.62 0 0 0-.032.707.84.84 0 0 0 .289.578c.107.107.385.257.835.45l1.606.61c.642.214 1.316.45 2.023.706.728.257 1.413.514 2.055.77.643.258 1.199.515 1.67.772.471.257.782.492.932.706.128.214.267.503.417.867.171.343.289.728.353 1.156.086.407.107.835.065 1.285a3.23 3.23 0 0 1-.354 1.285c-.214.428-.556.824-1.027 1.188-.45.364-1.06.663-1.831.899-.899.278-1.766.353-2.601.225a12.158 12.158 0 0 1-2.312-.578 27.635 27.635 0 0 1-1.799-.739c-.514-.257-.878-.364-1.092-.321-.235.043-.503.16-.803.353a12.92 12.92 0 0 0-.867.61c-.257.193-.481.375-.674.546-.193.15-.289.204-.289.16 0-.042.032-.17.096-.384a8.15 8.15 0 0 0 .257-.771c.107-.321.204-.664.289-1.028.107-.385.182-.75.225-1.092.043-.278.096-.62.161-1.028.042-.363.096-.802.16-1.316.086-.535.182-1.178.289-1.927.107.557.257 1.038.45 1.445.214.407.417.76.61 1.06.235.343.46.632.674.867.321.3.696.578 1.124.835.45.257.9.482 1.349.674.45.172.878.279 1.285.322.407.042.749 0 1.027-.129.279-.128.514-.364.707-.706.214-.343.364-.718.45-1.125.085-.406.117-.792.096-1.156-.021-.385-.118-.695-.289-.93-.129-.15-.428-.343-.899-.579a25.29 25.29 0 0 0-1.638-.77c-.621-.28-1.285-.568-1.991-.868-.685-.3-1.338-.6-1.959-.9-.6-.32-1.103-.62-1.51-.898-.385-.3-.599-.568-.642-.803a15.465 15.465 0 0 1-.096-1.124 6.05 6.05 0 0 1 .064-1.253c.086-.428.235-.835.449-1.22.236-.385.579-.706 1.028-.963.3-.172.696-.3 1.188-.386a9.599 9.599 0 0 1 1.638-.128c.6-.022 1.221 0 1.863.064a22.81 22.81 0 0 1 1.83.193 14 14 0 0 1 1.606.257c.493.107.867.203 1.124.289.3.107.621.117.964.032a3.08 3.08 0 0 0 .963-.418c.343-.214.696-.6 1.06-1.156z" fill="#fff"/></svg>